HIERARCHY
ROOT root
{
	OFFSET	0	13.1	24.9
	CHANNELS 6  Xposition Yposition Zposition Xrotation Yrotation Zrotation
	JOINT spine_1
	{
		OFFSET	0	9.99999	0
		CHANNELS 3  Xrotation Yrotation Zrotation
		JOINT spine_2
		{
			OFFSET	0	112	-10
			CHANNELS 3  Xrotation Yrotation Zrotation
			JOINT spine_3
			{
				OFFSET	0	206.5	19.3
				CHANNELS 3  Xrotation Yrotation Zrotation
				JOINT spine_4
				{
					OFFSET	0	110.4	14.6
					CHANNELS 3  Xrotation Yrotation Zrotation
					JOINT neck_1
					{
						OFFSET	0	71.8	-50.3
						CHANNELS 3  Xrotation Yrotation Zrotation
						JOINT neck_2
						{
							OFFSET	0	86.2	-25.8
							CHANNELS 3  Xrotation Yrotation Zrotation
							JOINT head_ee
							{
								OFFSET	0	179.8	-8.7
								CHANNELS 3  Xrotation Yrotation Zrotation
								End Site
								{
									OFFSET	1	0	0
								}
							}
						}
					}
					JOINT left_clavicle
					{
						OFFSET	-43.2	22.4	-70.8
						CHANNELS 3  Xrotation Yrotation Zrotation
						JOINT left_shoulder
						{
							OFFSET	-93.9	-5.79999	48.7
							CHANNELS 3  Xrotation Yrotation Zrotation
							JOINT left_elbow
							{
								OFFSET	-291.4	-30.8	15.2
								CHANNELS 3  Xrotation Yrotation Zrotation
								JOINT left_lowarm_twist
								{
									OFFSET	-110.7	-3.89999	13.6
									CHANNELS 3  Xrotation Yrotation Zrotation
									JOINT left_hand
									{
										OFFSET	-110.7	-3.89999	13.6
										CHANNELS 3  Xrotation Yrotation Zrotation
										JOINT left_ee
										{
											OFFSET	-80.8	-5.10001	12.1
											CHANNELS 3  Xrotation Yrotation Zrotation
											End Site
											{
												OFFSET	1	0	0
											}
										}
									}
								}
							}
						}
					}
					JOINT right_clavicle
					{
						OFFSET	43.2	22.4	-70.8
						CHANNELS 3  Xrotation Yrotation Zrotation
						JOINT right_shoulder
						{
							OFFSET	93.9	-5.79999	48.7
							CHANNELS 3  Xrotation Yrotation Zrotation
							JOINT right_elbow
							{
								OFFSET	291.4	-30.8	15.2
								CHANNELS 3  Xrotation Yrotation Zrotation
								JOINT right_lowarm_twist
								{
									OFFSET	110.7	-3.89999	13.6
									CHANNELS 3  Xrotation Yrotation Zrotation
									JOINT right_hand
									{
										OFFSET	110.7	-3.89999	13.6
										CHANNELS 3  Xrotation Yrotation Zrotation
										JOINT right_ee
										{
											OFFSET	80.8	-5.10001	12.1
											CHANNELS 3  Xrotation Yrotation Zrotation
											End Site
											{
												OFFSET	1	0	0
											}
										}
									}
								}
							}
						}
					}
				}
			}
		}
	}
	JOINT left_hip
	{
		OFFSET	-82.8	-127.5	0.300001
		CHANNELS 3  Xrotation Yrotation Zrotation
		JOINT left_knee
		{
			OFFSET	-28.2	-396.7	2.2
			CHANNELS 3  Xrotation Yrotation Zrotation
			JOINT left_ankle
			{
				OFFSET	-11.7	-411.3	35.4
				CHANNELS 3  Xrotation Yrotation Zrotation
				JOINT left_toes
				{
					OFFSET	0	-60	-88.6
					CHANNELS 3  Xrotation Yrotation Zrotation
					JOINT left_foot_ee
					{
						OFFSET	-22.5	-16.5	-42.2
						CHANNELS 3  Xrotation Yrotation Zrotation
						End Site
						{
							OFFSET	1	0	0
						}
					}
				}
			}
		}
	}
	JOINT right_hip
	{
		OFFSET	82.8	-127.5	0.300001
		CHANNELS 3  Xrotation Yrotation Zrotation
		JOINT right_knee
		{
			OFFSET	28.2	-396.7	2.2
			CHANNELS 3  Xrotation Yrotation Zrotation
			JOINT right_ankle
			{
				OFFSET	11.7	-411.3	35.4
				CHANNELS 3  Xrotation Yrotation Zrotation
				JOINT right_toes
				{
					OFFSET	0	-60	-88.6
					CHANNELS 3  Xrotation Yrotation Zrotation
					JOINT right_foot_ee
					{
						OFFSET	22.5	-16.5	-42.2
						CHANNELS 3  Xrotation Yrotation Zrotation
						End Site
						{
							OFFSET	1	0	0
						}
					}
				}
			}
		}
	}
}
MOTION
Frames: 12
Frame Time: 0.02
3293.5 722.849 -1531.73 5.82974 56.1814 -8.36897 -2.5307 1.14758 4.05981 -2.52197 0.887143 4.12445 -2.44553 -0.179047 4.21483 -2.46998 0.488257 4.19032 5.72113 22.4112 0.114424 7.91249 38.3319 0.28879 -0.0 0.0 -0.0 4.64868 13.3263 9.24856 -22.55 -0.385805 60.621 0.982186 -25.9446 0.22626 -37.0959 -2.64774 3.84438 0.462303 18.5282 10.3331 -0.0 0.0 -0.0 14.7099 25.4432 -29.7446 -15.843 55.1425 -39.4614 1.4985 36.5845 -0.495381 13.2914 -0.275494 1.67171 0.58519 8.67823 -0.266191 0.0 0.0 0.0 12.1042 16.259 -7.43647 -1.86206 0.0721785 0.276633 0.428363 -6.03737 -0.0646644 -12.0958 0.0 0.0 -0.0 0.0 -0.0 -21.9052 28.4308 16.1589 -22.3688 -0.259983 -3.40107 -18.575 -5.02619 -2.79665 -16.5384 0.0 0.0 0.0 0.0 0.0 
3272.35 734.738 -1525.52 7.73301 55.6445 -10.2688 -2.77277 1.22851 3.94352 -2.76465 0.975297 4.01355 -2.68353 -0.0827456 4.12933 -2.70687 0.569888 4.09072 5.88894 22.8026 1.65628 7.93817 37.6221 2.1046 -0.0 0.0 -0.0 4.50218 12.8935 9.00145 -19.6708 0.589622 60.1241 1.00178 -26.3924 0.2349 -38.2557 -2.7676 3.93259 0.278742 18.1205 9.05826 -0.0 0.0 -0.0 14.593 25.3244 -29.4823 -19.0507 54.2299 -39.2436 1.42562 35.2281 -0.452639 11.4853 -0.26095 1.44149 1.11405 6.52915 -4.75362 0.0 0.0 0.0 9.85515 17.2215 -5.62088 -3.19354 0.118252 0.475778 5.51712 -3.11003 -0.811193 -13.554 0.0 0.0 -0.0 0.0 -0.0 -19.6813 31.3606 14.518 -31.777 0.0280914 -4.81459 -21.6885 -4.6482 -3.26998 -13.3691 0.0 0.0 0.0 0.0 0.0 
3252.33 740.528 -1525.55 11.2651 56.6931 -13.8145 -3.0569 1.20537 3.87282 -3.04907 0.956685 3.94153 -2.97021 -0.102685 4.0545 -2.99274 0.538408 4.01996 6.06894 22.8652 3.21119 7.91778 36.3092 3.9563 -0.0 0.0 -0.0 4.58895 12.0686 9.14256 -16.749 0.159617 58.6838 1.02961 -27.0226 0.247408 -39.3926 -2.8868 4.01669 0.188771 18.8399 8.77709 -0.0 0.0 -0.0 14.4993 25.2523 -29.2693 -21.4154 53.5203 -39.3014 1.33004 33.3778 -0.398767 11.0361 -0.256206 1.38431 1.46427 4.03544 -8.17666 0.0 0.0 0.0 7.46361 18.3379 -3.7768 -4.79498 0.167513 0.716607 10.1975 -2.69809 -1.47346 -15.4299 0.0 0.0 -0.0 0.0 -0.0 -16.8159 33.056 13.0563 -44.561 0.782136 -6.62465 -21.413 -4.43306 -3.22919 -9.52347 0.0 0.0 0.0 0.0 0.0 
3234.04 735.492 -1527.67 12.6518 57.3017 -14.9754 -3.21055 1.07797 3.89315 -3.2025 0.828249 3.95372 -3.13215 -0.241604 4.03219 -3.15461 0.39771 4.01981 6.67373 22.9082 2.79969 8.63844 36.5235 3.32882 -0.0 0.0 -0.0 4.51073 11.1598 9.00072 -14.7933 -0.329059 57.6539 1.0673 -27.8652 0.264783 -39.5867 -2.90731 4.03081 0.173881 18.7996 8.67145 -0.0 0.0 -0.0 14.3515 25.1831 -28.9283 -23.426 52.8978 -39.3074 1.28029 32.3822 -0.371757 10.5477 -0.25054 1.32218 1.58511 1.46692 -10.0567 0.0 0.0 0.0 5.43946 18.9049 -3.37963 -6.325 0.208267 0.947869 10.0745 -1.73651 -1.45202 -15.4019 0.0 0.0 -0.0 0.0 -0.0 -14.8909 33.0291 12.1666 -46.8384 0.958103 -6.92769 -21.1273 -4.22954 -3.18679 -8.68839 0.0 0.0 0.0 0.0 0.0 
3214.37 737.209 -1521.98 13.5702 58.1172 -15.5226 -3.37672 0.989208 3.90943 -3.36852 0.738637 3.96433 -3.30398 -0.343142 4.01785 -3.32638 0.29518 4.02165 7.32151 22.9414 2.32964 9.41789 36.7579 2.61474 -0.0 0.0 -0.0 4.44071 10.2171 8.86715 -12.5747 -0.805664 56.5868 1.11841 -28.9867 0.28911 -39.8454 -2.93474 4.04953 0.157989 18.7177 8.54405 -0.0 0.0 -0.0 14.2864 25.2293 -28.7692 -25.1896 52.3423 -39.3746 1.21227 30.9845 -0.336027 9.87994 -0.241936 1.23732 1.74252 -2.19845 -12.5939 0.0 0.0 0.0 4.03073 19.3795 -2.69206 -7.92639 0.244289 1.19097 9.6002 -0.486969 -1.38125 -15.3808 0.0 0.0 -0.0 0.0 -0.0 -12.2844 32.5891 10.7299 -49.367 1.16749 -7.25581 -20.4074 -3.85886 -3.07929 -7.40049 0.0 0.0 0.0 0.0 0.0 
3196.35 748.704 -1515.12 13.8487 57.4706 -15.6944 -3.58339 0.929221 3.86525 -3.57534 0.681576 3.91644 -3.51528 -0.400125 3.95505 -3.53703 0.229017 3.96862 8.24368 22.9866 1.65922 10.5388 37.0917 1.58342 -0.0 0.0 -0.0 4.24806 8.85859 8.50295 -9.56914 -1.43654 54.9625 1.19023 -30.5227 0.324758 -40.1674 -2.96898 4.07265 0.135667 18.5955 8.36224 -0.0 0.0 -0.0 14.2416 25.3388 -28.6508 -27.1306 51.758 -39.4182 1.11869 28.9929 -0.289249 8.91855 -0.227813 1.11533 1.96571 -7.41223 -16.0845 0.0 0.0 0.0 2.78093 19.9045 -2.10757 -9.69249 0.276118 1.46009 8.90939 1.29456 -1.27972 -15.3477 0.0 0.0 -0.0 0.0 -0.0 -8.83019 31.3974 8.51845 -52.835 1.47794 -7.6904 -19.3725 -3.32505 -2.9246 -5.55835 0.0 0.0 0.0 0.0 0.0 
3176.41 748.164 -1512.66 13.6895 57.2707 -14.923 -3.72826 0.809178 3.80649 -3.72038 0.565506 3.85017 -3.66934 -0.504642 3.85861 -3.6901 0.110609 3.88985 8.75044 22.9711 1.05452 11.1971 37.4185 0.710624 -0.0 0.0 -0.0 3.99733 8.12295 8.03804 -7.85 -1.76175 54.0473 1.27042 -32.1819 0.366484 -40.6856 -3.02437 4.10946 0.0998673 18.4201 8.07789 -0.0 0.0 -0.0 14.2197 25.5511 -28.5738 -29.1185 51.1147 -39.3847 1.01606 26.7167 -0.241284 7.55998 -0.204369 0.943378 2.18147 -13.2176 -19.547 0.0 0.0 0.0 1.15752 20.5308 -1.8706 -8.54941 0.256464 1.2858 7.92028 3.85368 -1.13665 -15.3027 0.0 0.0 -0.0 0.0 -0.0 -4.80707 32.2426 6.8239 -56.9322 1.87799 -8.17887 -18.3443 -2.56454 -2.77186 -3.17582 0.0 0.0 0.0 0.0 0.0 
3160.44 751.135 -1510.93 15.1024 57.4846 -16.0377 -3.86799 0.730421 3.59584 -3.86094 0.500283 3.63496 -3.8174 -0.51821 3.63245 -3.8358 0.061571 3.66867 9.47756 22.8544 0.0720208 12.1574 37.8348 -0.698281 -0.0 0.0 -0.0 3.87094 7.58202 7.79456 -6.40118 -1.96064 53.3652 1.37237 -34.2072 0.422307 -41.4225 -3.10371 4.16095 0.0728599 18.0711 7.78046 -0.0 0.0 -0.0 14.3816 25.9185 -28.9095 -31.2195 50.5062 -39.6704 0.884419 23.6587 -0.185241 5.77564 -0.167394 0.718453 2.51021 -21.5079 -24.1421 0.0 0.0 0.0 -0.846803 21.2404 -0.858755 -6.86603 0.221197 1.02989 6.4838 7.38677 -0.932323 -15.2356 0.0 0.0 -0.0 0.0 -0.0 0.825717 33.2119 3.90307 -63.2776 2.56411 -8.87634 -17.023 -1.49452 -2.57597 0.13868 -0.0 -0.0 0.0 0.0 0.0 
3147.46 747.001 -1510.14 15.1466 57.8361 -16.0137 -3.8804 0.640836 3.5695 -3.87341 0.412552 3.60299 -3.83609 -0.595093 3.5774 -3.85395 -0.0230274 3.62643 10.2284 22.4138 -1.22024 13.143 37.9864 -2.49908 -0.0 0.0 -0.0 3.85119 7.21754 7.7463 -4.74156 -2.11194 52.2233 1.52248 -37.0208 0.509749 -42.3505 -3.20454 4.22432 0.00786909 18.0374 7.37093 -0.0 0.0 -0.0 14.3954 26.3667 -28.8852 -33.4795 49.7658 -39.2274 0.845264 22.7198 -0.169822 5.45514 -0.160011 0.678178 2.82539 -24.6302 -26.9286 0.0 0.0 0.0 -2.84822 22.2192 0.115747 -4.43931 0.157154 0.663005 6.89125 8.49957 -0.989613 -15.1135 0.0 0.0 -0.0 0.0 -0.0 3.64923 32.6777 2.30702 -63.0087 2.53348 -8.84834 -18.4601 -1.18706 -2.79758 0.388738 -0.0 -0.0 0.0 0.0 0.0 
3126.28 755.675 -1511.4 17.7432 58.0958 -17.8457 -3.97352 0.545023 3.43013 -3.96703 0.325784 3.45782 -3.93695 -0.644651 3.41283 -3.95319 -0.0979065 3.47173 11.2962 21.7401 -3.07808 14.5809 38.1687 -5.13406 -0.0 0.0 -0.0 3.82829 7.04825 7.69891 -3.04742 -2.16434 51.3993 1.73392 -40.6568 0.642416 -43.6637 -3.34895 4.3112 -0.0723529 17.977 6.85843 -0.0 0.0 -0.0 14.69 26.9582 -29.5008 -35.4745 49.2381 -39.0915 0.812846 21.9325 -0.157507 5.05571 -0.150494 0.62804 3.29426 -28.9845 -30.7552 0.0 0.0 0.0 -4.81342 23.2503 1.17806 -1.41663 0.0557325 0.210253 7.46247 9.84506 -1.07022 -14.9414 0.0 0.0 -0.0 0.0 -0.0 6.73878 32.388 0.488663 -62.5729 2.48413 -8.80265 -20.592 -0.79397 -3.12593 0.663806 -0.0 -0.0 0.0 0.0 0.0 
3116.1 753.344 -1498.63 13.6907 58.565 -14.1717 -3.9441 0.552989 3.27784 -3.93819 0.343408 3.30634 -3.9088 -0.584057 3.27245 -3.92373 -0.0602021 3.32356 12.7289 21.679 -3.90761 16.3664 38.3329 -6.60127 -0.0 0.0 -0.0 3.68033 6.88198 7.42555 -0.672462 -2.2904 50.625 2.07885 -45.8357 0.878982 -44.3922 -3.42992 4.35797 -0.161901 17.8927 6.27985 -0.0 0.0 -0.0 14.9761 26.7275 -30.2089 -37.1617 47.9464 -38.6833 0.644973 17.7188 -0.100533 4.58715 -0.138885 0.569312 3.28905 -30.0021 -30.8568 0.0 0.0 0.0 -6.1884 23.8968 2.27843 3.16301 -0.143117 -0.46417 7.62065 9.23931 -1.09205 -14.9364 0.0 0.0 -0.0 0.0 -0.0 7.90273 31.6866 -2.33146 -58.9635 2.08911 -8.41027 -19.0822 -0.2855 -2.89902 1.28017 -0.0 -0.0 0.0 0.0 0.0 
3107.56 761.893 -1493.98 13.1557 56.6031 -13.5501 -4.10237 0.494676 3.18283 -4.09678 0.291249 3.20782 -4.07134 -0.615963 3.16162 -4.08528 -0.109184 3.21915 12.6495 21.5315 -4.1572 16.3063 38.3447 -6.90465 -0.0 0.0 -0.0 3.50168 6.82659 7.10073 0.819784 -1.80548 49.8125 2.26257 -48.2537 1.01347 -44.5817 -3.45107 4.36996 -0.208279 17.7739 5.95052 -0.0 0.0 -0.0 14.9923 26.5365 -30.2735 -38.0689 46.8814 -38.7054 0.632691 17.402 -0.0968274 4.3582 -0.133038 0.54065 3.27618 -30.1954 -30.7984 0.0 0.0 0.0 -8.31398 24.7211 3.63776 3.21129 -0.145499 -0.471193 7.83962 8.2176 -1.1224 -14.9235 0.0 0.0 -0.0 0.0 -0.0 9.49663 31.5518 -2.95765 -53.34 1.52533 -7.75211 -18.5419 0.482368 -2.82215 0.541607 -0.0 -0.0 0.0 0.0 0.0 
